<?xml version="1.0" encoding="UTF-8" standalone="no"?>
<svg
   height="78.878906"
   viewBox="0 0 78.878906 78.878906"
   width="78.878906"
   version="1.1"
   id="svg2"
   sodipodi:docname="linkedin.svg"
   inkscape:version="1.4.3 (0d15f75042, 2025-12-25)"
   xmlns:inkscape="http://www.inkscape.org/namespaces/inkscape"
   xmlns:sodipodi="http://sodipodi.sourceforge.net/DTD/sodipodi-0.dtd"
   xmlns="http://www.w3.org/2000/svg"
   xmlns:svg="http://www.w3.org/2000/svg">
  <defs
     id="defs2" />
  <sodipodi:namedview
     id="namedview2"
     pagecolor="#000000"
     bordercolor="#000000"
     borderopacity="0.25"
     inkscape:showpageshadow="2"
     inkscape:pageopacity="0.0"
     inkscape:pagecheckerboard="0"
     inkscape:deskcolor="#000000"
     inkscape:zoom="5.8203577"
     inkscape:cx="3.2644042"
     inkscape:cy="43.725835"
     inkscape:window-width="1920"
     inkscape:window-height="1000"
     inkscape:window-x="0"
     inkscape:window-y="0"
     inkscape:window-maximized="1"
     inkscape:current-layer="g4" />
  <g
     inkscape:groupmode="layer"
     id="layer1"
     inkscape:label="Border"
     transform="translate(3.4394531,3.4394531)">
    <g
       fill="none"
       fill-rule="evenodd"
       id="g4">
      <path
         id="path3"
         style="fill:#ffffff"
         sodipodi:type="inkscape:offset"
         inkscape:radius="3.4396"
         inkscape:original="M 8 0 C 3.581722 0 0 3.581722 0 8 L 0 64 C 0 68.418278 3.581722 72 8 72 L 64 72 C 68.418278 72 72 68.418278 72 64 L 72 8 C 72 3.581722 68.418278 0 64 0 L 8 0 z "
         d="M 8,-3.4394531 C 1.7228242,-3.4394531 -3.4394531,1.7228242 -3.4394531,8 v 56 c 0,6.277176 5.1622773,11.439453 11.4394531,11.439453 h 56 c 6.277176,0 11.439453,-5.162277 11.439453,-11.439453 V 8 C 75.439453,1.7228242 70.277176,-3.4394531 64,-3.4394531 Z" />
      <path
         d="M 62,62 H 51.315625 V 43.802115 c 0,-4.989361 -1.895833,-7.777583 -5.844922,-7.777583 -4.296094,0 -6.540625,2.901578 -6.540625,7.777583 V 62 H 28.633333 V 27.333333 h 10.296745 v 4.669595 c 0,0 3.095964,-5.728713 10.452474,-5.728713 C 56.735677,26.274215 62,30.764471 62,40.051212 Z M 16.349349,22.794013 C 12.842057,22.794013 10,19.929657 10,16.397007 10,12.864357 12.842057,10 16.349349,10 c 3.507292,0 6.347656,2.864357 6.347656,6.397007 0,3.53265 -2.840364,6.397006 -6.347656,6.397006 z M 11.032552,62 H 21.769401 V 27.333333 H 11.032552 Z"
         fill="#ffffff"
         id="path4" />
    </g>
  </g>
  <g
     fill="none"
     fill-rule="evenodd"
     id="g2"
     style="display:inline"
     transform="translate(3.4394531,3.4394531)">
    <path
       d="m 8,72 h 56 c 4.418278,0 8,-3.581722 8,-8 V 8 C 72,3.581722 68.418278,0 64,0 H 8 C 3.581722,0 0,3.581722 0,8 v 56 c 0,4.418278 3.581722,8 8,8 z"
       fill="#007ebb"
       id="path1" />
    <path
       d="M 62,62 H 51.315625 V 43.802115 c 0,-4.989361 -1.895833,-7.777583 -5.844922,-7.777583 -4.296094,0 -6.540625,2.901578 -6.540625,7.777583 V 62 H 28.633333 V 27.333333 h 10.296745 v 4.669595 c 0,0 3.095964,-5.728713 10.452474,-5.728713 C 56.735677,26.274215 62,30.764471 62,40.051212 Z M 16.349349,22.794013 C 12.842057,22.794013 10,19.929657 10,16.397007 10,12.864357 12.842057,10 16.349349,10 c 3.507292,0 6.347656,2.864357 6.347656,6.397007 0,3.53265 -2.840364,6.397006 -6.347656,6.397006 z M 11.032552,62 H 21.769401 V 27.333333 H 11.032552 Z"
       fill="#ffffff"
       id="path2" />
  </g>
</svg>
